<svg width="13" height="13" viewBox="0 0 13 13" fill="none" xmlns="http://www.w3.org/2000/svg">
<path d="M6.7385 0.474609C10.1839 0.474609 12.977 3.26768 12.977 6.71311C12.977 10.1585 10.1839 12.9516 6.7385 12.9516C3.29307 12.9516 0.5 10.1585 0.5 6.71311C0.5 3.26768 3.29307 0.474609 6.7385 0.474609ZM5.92324 2.67503V3.66475C5.5791 3.71104 5.27348 3.79204 5.00663 3.909C4.57113 4.10256 4.24129 4.36275 4.01747 4.68936C3.79969 5.00999 3.6907 5.36729 3.6907 5.7605C3.69072 6.09919 3.7542 6.38358 3.88122 6.61342C4.00823 6.8372 4.17461 7.01873 4.38023 7.15785C4.59196 7.29699 4.8223 7.40879 5.07032 7.49348C5.32425 7.57812 5.57511 7.64786 5.823 7.70228C6.07097 7.75066 6.29803 7.799 6.50367 7.84739C6.7154 7.88973 6.88506 7.94423 7.0121 8.01077C7.13897 8.07726 7.20254 8.16792 7.20262 8.28271C7.20262 8.35529 7.17508 8.41879 7.12066 8.47323C7.06621 8.52163 6.97857 8.56095 6.85758 8.5912C6.74266 8.61538 6.58245 8.62775 6.37684 8.62775C6.02598 8.62775 5.66304 8.57607 5.28798 8.47323C4.91897 8.36434 4.58301 8.2222 4.28054 8.04677L3.59101 9.6075C3.91163 9.80109 4.32005 9.95839 4.81611 10.0794C5.17563 10.1671 5.54466 10.2225 5.92324 10.2466V11.2048H7.20262V10.1973C7.50094 10.1492 7.76745 10.0747 8.00127 9.97083C8.43672 9.77122 8.76326 9.511 8.98102 9.19046C9.2048 8.86386 9.3166 8.50694 9.31665 8.11988C9.31665 7.78716 9.25317 7.50851 9.12613 7.28468C8.99911 7.06094 8.82991 6.87935 8.61825 6.74025C8.41258 6.60112 8.18559 6.48931 7.93758 6.40462C7.68955 6.31993 7.43843 6.25308 7.18435 6.20468C6.93639 6.1563 6.70649 6.11133 6.49481 6.06899C6.28917 6.02665 6.12283 5.97495 5.9958 5.91447C5.86876 5.84792 5.80528 5.76028 5.80528 5.65139C5.80528 5.57884 5.82948 5.51248 5.87783 5.45201C5.93227 5.39151 6.01992 5.34264 6.1409 5.30635C6.26188 5.27008 6.42545 5.25207 6.63106 5.25207C6.90927 5.25209 7.19367 5.29142 7.48398 5.37004C7.78036 5.44868 8.08606 5.56668 8.40059 5.72395L9.04471 4.17207C8.712 3.98455 8.3367 3.84577 7.9193 3.75503C7.68235 3.70352 7.44347 3.66653 7.20262 3.64426V2.67503H5.92324Z" fill="white"/>
</svg>
