<svg width="27" height="27" viewBox="0 0 27 27" fill="none" xmlns="http://www.w3.org/2000/svg">
<path d="M25.9144 13.8664H1.08594M22.8778 21.7382C22.8778 21.7382 19.1268 18.8092 13.5073 18.8092C7.8878 18.8092 4.30113 21.7382 4.30113 21.7382M22.8778 5.26222C22.8778 5.26222 19.1268 8.19129 13.5073 8.19129C7.8878 8.19129 4.30113 5.26222 4.30113 5.26222M13.2322 26.1318V0.685547M25.9144 13.5918C25.9144 20.6186 20.3563 26.3149 13.5002 26.3149C6.64398 26.3149 1.08594 20.6186 1.08594 13.5918C1.08594 6.56496 6.64398 0.868614 13.5002 0.868614C20.3563 0.868614 25.9144 6.56496 25.9144 13.5918ZM19.3054 13.5918C19.3054 20.6186 16.7463 26.3149 13.5895 26.3149C10.4327 26.3149 7.87357 20.6186 7.87357 13.5918C7.87357 6.56496 10.4327 0.868614 13.5895 0.868614C16.7463 0.868614 19.3054 6.56496 19.3054 13.5918Z" stroke="white"/>
</svg>
